<?xml version="1.0" encoding="utf-8"?>
<!-- Generator: Adobe Illustrator 19.0.0, SVG Export Plug-In . SVG Version: 6.00 Build 0)  -->
<svg version="1.1" id="Layer_1" xmlns="http://www.w3.org/2000/svg" xmlns:xlink="http://www.w3.org/1999/xlink" x="0px" y="0px"
	 viewBox="0 0 70 70" style="enable-background:new 0 0 70 70;" xml:space="preserve">
<style type="text/css">
	.st0{fill:#3BBFCF;stroke:#3BBFCF;stroke-miterlimit:10;}
	.st1{fill:none;stroke:#FFFFFF;stroke-width:1.5;stroke-miterlimit:10;}
	.st2{fill:#3BBFCF;}
	.st3{fill:none;stroke:#FFFFFF;stroke-miterlimit:10;}
</style>
<g>
	<polygon id="XMLID_76_" class="st0" points="16.7,69.3 0.8,69.3 0.8,53.3 27,27 53.3,0.8 69.2,0.8 69.2,16.7 43,43 	"/>
	<rect id="XMLID_75_" x="53.3" y="0.8" class="st1" width="15.9" height="15.9"/>
	<g id="XMLID_74_">
		<rect id="XMLID_83_" x="7.6" y="7.6" class="st2" width="14.9" height="14.9"/>
		<path id="XMLID_80_" class="st2" d="M22,8.1V22H8.1V8.1H22 M23,7.1H7.1V23H23V7.1L23,7.1z"/>
	</g>
	<g id="XMLID_73_">
		<rect id="XMLID_87_" x="47.5" y="47.5" class="st2" width="14.9" height="14.9"/>
		<path id="XMLID_84_" class="st2" d="M61.9,48v13.9H48V48H61.9 M62.9,47H47v15.9h15.9V47L62.9,47z"/>
	</g>
	<rect id="XMLID_55_" x="0.8" y="53.3" class="st1" width="15.9" height="15.9"/>
	<rect id="XMLID_50_" x="27" y="27" class="st1" width="15.9" height="15.9"/>
	<line id="XMLID_49_" class="st1" x1="53.3" y1="16.7" x2="43" y2="27"/>
	<line id="XMLID_33_" class="st3" x1="69.2" y1="16.7" x2="43" y2="43"/>
	<line id="XMLID_6_" class="st3" x1="53.3" y1="0.8" x2="27" y2="27"/>
	<line id="XMLID_5_" class="st1" x1="16.7" y1="53.3" x2="27" y2="43"/>
	<line id="XMLID_4_" class="st3" x1="16.7" y1="69.3" x2="43" y2="43"/>
	<line id="XMLID_3_" class="st3" x1="0.8" y1="53.3" x2="27" y2="27"/>
	<line id="XMLID_2_" class="st1" x1="7.1" y1="23" x2="23" y2="7.1"/>
	<line id="XMLID_1_" class="st1" x1="47" y1="62.9" x2="62.9" y2="47"/>
</g>
</svg>
